# xmcd
#
# Track frame offsets:
#	150
#	17102
#	37529
#	40368
#	57598
#	79221
#	107979
#	128207
#	134069
#	146294
#	162507
#	186434
#	205642
#	211144
#	231080
#	246199
#	264874
#
# Disc length: 3677 seconds
#
# Revision: 0
# Processed by: cddbd v1.5.1PL0 Copyright (c) Steve Scherf et al.
# Submitted via: dBpowerAMP V4.0
#
DISCID=f20e5b11
DTITLE=Kelly Bell Band - Phat Blues Music
DYEAR=1900
DGENRE=Blues
TTITLE0=Sweet Wind and Soul
TTITLE1=Homegrown
TTITLE2=Callin' Ma Bell
TTITLE3=FBI
TTITLE4=Down in the Bottom
TTITLE5=Say One Thing
TTITLE6=One World
TTITLE7=Gibb's Groove
TTITLE8=Only One
TTITLE9=Dear Maggie
TTITLE10=Praise to the Woman
TTITLE11=Look May Way
TTITLE12=Barfly and the...
TTITLE13=Bluesman
TTITLE14=Rollin' and Tumblin'
TTITLE15=Somebody's Fool
TTITLE16=Mean to Me
EXTD=
EXTT0=
EXTT1=
EXTT2=
EXTT3=
EXTT4=
EXTT5=
EXTT6=
EXTT7=
EXTT8=
EXTT9=
EXTT10=
EXTT11=
EXTT12=
EXTT13=
EXTT14=
EXTT15=
EXTT16=
PLAYORDER=
